HIERARCHY
ROOT hip
{
  OFFSET 0 0 0
  CHANNELS 6 Xposition Yposition Zposition Zrotation Yrotation Xrotation
  JOINT abdomen
  {
    OFFSET 0 20.6881 -0.73152
    CHANNELS 3 Zrotation Xrotation Yrotation
    JOINT chest
    {
      OFFSET 0 11.7043 -0.48768
      CHANNELS 3 Zrotation Xrotation Yrotation
      JOINT neck
      {
        OFFSET 0 22.1894 -2.19456
        CHANNELS 3 Zrotation Xrotation Yrotation
        JOINT head
        {
          OFFSET -0.24384 7.07133 1.2192
          CHANNELS 3 Zrotation Xrotation Yrotation
          JOINT leftEye
          {
            OFFSET 4.14528 8.04674 8.04672
            CHANNELS 3 Zrotation Xrotation Yrotation
            End Site
            {
              OFFSET 1 0 0
            }
          }
          JOINT rightEye
          {
            OFFSET -3.6576 8.04674 8.04672
            CHANNELS 3 Zrotation Xrotation Yrotation
            End Site
            {
              OFFSET 1 0 0
            }
          }
        }
      }
      JOINT rCollar
      {
        OFFSET -2.68224 19.2634 -4.8768
        CHANNELS 3 Zrotation Xrotation Yrotation
        JOINT rShldr
        {
          OFFSET -8.77824 -1.95073 1.46304
          CHANNELS 3 Zrotation Xrotation Yrotation
          JOINT rForeArm
          {
            OFFSET -28.1742 -1.7115 0.48768
            CHANNELS 3 Zrotation Xrotation Yrotation
            JOINT rHand
            {
              OFFSET -22.5879 0.773209 7.07136
              CHANNELS 3 Zrotation Xrotation Yrotation
              JOINT rThumb1
              {
                OFFSET -1.2192 -0.487915 3.41376
                CHANNELS 3 Zrotation Xrotation Yrotation
                JOINT rThumb2
                {
                  OFFSET -3.37035 -0.52449 3.41376
                  CHANNELS 3 Zrotation Xrotation Yrotation
                  End Site
                  {
                    OFFSET -1.78271 -1.18214 1.43049
                  }
                }
              }
              JOINT rIndex1
              {
                OFFSET -7.75947 0.938293 5.60832
                CHANNELS 3 Zrotation Xrotation Yrotation
                JOINT rIndex2
                {
                  OFFSET -2.54057 -0.884171 1.56538
                  CHANNELS 3 Zrotation Xrotation Yrotation
                  End Site
                  {
                    OFFSET -1.62519 -0.234802 1.16502
                  }
                }
              }
              JOINT rMid1
              {
                OFFSET -8.24714 1.18213 3.41376
                CHANNELS 3 Zrotation Xrotation Yrotation
                JOINT rMid2
                {
                  OFFSET -3.10165 -0.590103 1.0647
                  CHANNELS 3 Zrotation Xrotation Yrotation
                  End Site
                  {
                    OFFSET -2.48547 -0.328903 0.83742
                  }
                }
              }
              JOINT rRing1
              {
                OFFSET -8.82822 0.546677 1.51678
                CHANNELS 3 Zrotation Xrotation Yrotation
                JOINT rRing2
                {
                  OFFSET -2.60934 -0.819778 -0.0198488
                  CHANNELS 3 Zrotation Xrotation Yrotation
                  End Site
                  {
                    OFFSET -2.33842 -0.294052 0.168128
                  }
                }
              }
              JOINT rPinky1
              {
                OFFSET -8.27202 -0.0477905 -0.4584
                CHANNELS 3 Zrotation Xrotation Yrotation
                JOINT rPinky2
                {
                  OFFSET -1.82734 -0.647385 -0.700984
                  CHANNELS 3 Zrotation Xrotation Yrotation
                  End Site
                  {
                    OFFSET -1.69225 -0.51767 -0.607171
                  }
                }
              }
            }
          }
        }
      }
      JOINT lCollar
      {
        OFFSET 2.68224 19.2634 -4.8768
        CHANNELS 3 Zrotation Xrotation Yrotation
        JOINT lShldr
        {
          OFFSET 8.77824 -1.95073 1.46304
          CHANNELS 3 Zrotation Xrotation Yrotation
          JOINT lForeArm
          {
            OFFSET 28.1742 -1.7115 0.48768
            CHANNELS 3 Zrotation Xrotation Yrotation
            JOINT lHand
            {
              OFFSET 22.5879 0.773209 7.07136
              CHANNELS 3 Zrotation Xrotation Yrotation
              JOINT lThumb1
              {
                OFFSET 1.2192 -0.487915 3.41376
                CHANNELS 3 Zrotation Xrotation Yrotation
                JOINT lThumb2
                {
                  OFFSET 3.37035 -0.52449 3.41376
                  CHANNELS 3 Zrotation Xrotation Yrotation
                  End Site
                  {
                    OFFSET 1.78271 -1.18214 1.43049
                  }
                }
              }
              JOINT lIndex1
              {
                OFFSET 7.75947 0.938293 5.60832
                CHANNELS 3 Zrotation Xrotation Yrotation
                JOINT lIndex2
                {
                  OFFSET 2.54057 -0.884171 1.56538
                  CHANNELS 3 Zrotation Xrotation Yrotation
                  End Site
                  {
                    OFFSET 1.62519 -0.234802 1.16502
                  }
                }
              }
              JOINT lMid1
              {
                OFFSET 8.24714 1.18213 3.41376
                CHANNELS 3 Zrotation Xrotation Yrotation
                JOINT lMid2
                {
                  OFFSET 3.10165 -0.590103 1.0647
                  CHANNELS 3 Zrotation Xrotation Yrotation
                  End Site
                  {
                    OFFSET 2.48547 -0.328903 0.83742
                  }
                }
              }
              JOINT lRing1
              {
                OFFSET 8.82822 0.546677 1.51678
                CHANNELS 3 Zrotation Xrotation Yrotation
                JOINT lRing2
                {
                  OFFSET 2.60934 -0.819778 -0.0198488
                  CHANNELS 3 Zrotation Xrotation Yrotation
                  End Site
                  {
                    OFFSET 2.33842 -0.294052 0.168128
                  }
                }
              }
              JOINT lPinky1
              {
                OFFSET 8.27202 -0.0477905 -0.4584
                CHANNELS 3 Zrotation Xrotation Yrotation
                JOINT lPinky2
                {
                  OFFSET 1.82734 -0.647385 -0.700984
                  CHANNELS 3 Zrotation Xrotation Yrotation
                  End Site
                  {
                    OFFSET 1.69225 -0.51767 -0.607171
                  }
                }
              }
            }
          }
        }
      }
    }
  }
  JOINT rButtock
  {
    OFFSET -8.77824 4.35084 1.2192
    CHANNELS 3 Zrotation Xrotation Yrotation
    JOINT rThigh
    {
      OFFSET 0 -1.70687 -2.19456
      CHANNELS 3 Zrotation Xrotation Yrotation
      JOINT rShin
      {
        OFFSET 0 -36.8199 0.73152
        CHANNELS 3 Zrotation Xrotation Yrotation
        JOINT rFoot
        {
          OFFSET 0.73152 -45.1104 -5.12064
          CHANNELS 3 Zrotation Xrotation Yrotation
          End Site
          {
            OFFSET -1.1221 -3.69964 12.103
          }
        }
      }
    }
  }
  JOINT lButtock
  {
    OFFSET 8.77824 4.35084 1.2192
    CHANNELS 3 Zrotation Xrotation Yrotation
    JOINT lThigh
    {
      OFFSET 0 -1.70687 -2.19456
      CHANNELS 3 Zrotation Xrotation Yrotation
      JOINT lShin
      {
        OFFSET 0 -36.8199 0.73152
        CHANNELS 3 Zrotation Xrotation Yrotation
        JOINT lFoot
        {
          OFFSET -0.73152 -45.1104 -5.12064
          CHANNELS 3 Zrotation Xrotation Yrotation
          End Site
          {
            OFFSET 1.1221 -3.69964 12.103
          }
        }
      }
    }
  }
}
MOTION
Frames:	7
Frame Time:	0.00833333
5.35114 86.1935 77.7299 -165.912 -65.1557 188.751 -4.9105 -12.6688 -3.85474 -4.13211 -7.46614 -1.50415 -9.73066 5.43503 -13.1478 25.6987 9.12719 -30.0307 -0.0 0.0 0.0 -0.0 0.0 0.0 -9.70092e-14 6.57868e-13 -2.29242e-13 24.4532 -41.0073 -0.372525 -7.16102 -2.57968 12.5763 -1.07592 28.6608 4.37966 -8.23068e-10 -3.47037e-09 -7.39227e-09 -1.68252e-09 -5.04259e-09 -1.27157e-08 -8.23066e-10 -3.47036e-09 -7.39227e-09 7.73091 5.47488 0.417314 -8.2307e-10 -3.47037e-09 -7.39228e-09 2.90554 0.965183 0.102902 -8.23064e-10 -3.47037e-09 -7.39227e-09 10.2786 0.731801 0.0259123 -8.23081e-10 -3.47035e-09 -7.39226e-09 2.22167 -0.733487 -0.20892 -9.72596e-14 6.57886e-13 -2.29525e-13 -31.5221 -6.86593 15.4755 10.1391 -4.22642 -18.0626 1.02718 27.4663 -4.19103 1.06918e-09 -5.429e-10 -1.37049e-09 1.80052e-09 -8.3724e-10 -2.393e-09 1.06916e-09 -5.4289e-10 -1.37046e-09 -7.73091 5.47488 -0.417314 1.06918e-09 -5.42915e-10 -1.37049e-09 -2.90554 0.965183 -0.102902 1.06917e-09 -5.42914e-10 -1.37049e-09 -10.2786 0.731801 -0.0259123 1.06918e-09 -5.42899e-10 -1.3705e-09 -2.22167 -0.733487 0.20892 -2.03217e-16 0.0 -3.88251e-19 1.23942 -42.0174 4.39015 -1.44296 39.9096 -5.73405 177.254 8.49974 10.5447 2.03217e-16 0.0 3.88251e-19 -4.30604 -47.8364 -0.522849 0.744768 60.5813 -2.17051 12.3061 -28.4479 22.4221
5.2213 86.2435 76.6697 -164.031 -64.0897 186.737 -3.39745 -12.0941 -3.24708 -4.38588 -7.69705 -1.41028 -9.61716 5.54616 -13.0192 25.5762 9.20253 -29.8693 -0.0 0.0 0.0 -0.0 0.0 0.0 -2.95835e-13 8.57728e-13 -9.12862e-13 22.9948 -46.005 -1.99233 -7.0665 -2.53491 12.4036 -1.53691 33.2018 5.25803 -1.01581e-09 -8.2111e-09 -1.48761e-08 -2.20952e-09 -1.23378e-08 -2.56153e-08 -1.01581e-09 -8.21109e-09 -1.48762e-08 7.73091 5.47488 0.417314 -1.01581e-09 -8.2111e-09 -1.48762e-08 2.90554 0.965183 0.102902 -1.01581e-09 -8.2111e-09 -1.48761e-08 10.2786 0.731801 0.0259123 -1.01582e-09 -8.21109e-09 -1.48761e-08 2.22167 -0.733487 -0.20892 -2.9608e-13 8.57746e-13 -9.13224e-13 -30.8542 -7.03237 15.5211 10.0824 -4.1916 -17.956 1.0523 27.7652 -4.2448 3.95242e-09 -9.93463e-09 -7.15011e-09 6.647e-09 -1.68164e-08 -1.24341e-08 3.9524e-09 -9.93463e-09 -7.15009e-09 -7.73091 5.47488 -0.417314 3.95242e-09 -9.93466e-09 -7.15011e-09 -2.90554 0.965183 -0.102902 3.95241e-09 -9.93466e-09 -7.15011e-09 -10.2786 0.731801 -0.0259123 3.95242e-09 -9.93463e-09 -7.15012e-09 -2.22167 -0.733487 0.20892 -2.03217e-16 0.0 -3.88251e-19 1.75962 -42.0014 4.61979 -1.60693 39.823 -6.73087 177.143 7.81669 11.4372 2.03217e-16 0.0 3.88251e-19 -3.43777 -47.4205 -0.512024 0.735613 60.5661 -2.19869 12.4236 -27.4578 23.3051
5.15376 86.3064 75.6588 -162.533 -62.8889 185.115 -2.25547 -11.5898 -2.77243 -4.51995 -7.86537 -1.32557 -9.55228 5.5382 -12.8969 25.4384 9.29467 -29.676 -0.0 0.0 0.0 -0.0 0.0 0.0 -3.99079e-13 9.4382e-13 -1.27207e-12 21.152 -50.3247 -3.79111 -6.97656 -2.492 12.2401 -2.04504 37.0691 6.09465 -1.03638e-09 -1.05832e-08 -1.83618e-08 -2.3287e-09 -1.60184e-08 -3.16264e-08 -1.03638e-09 -1.05832e-08 -1.83618e-08 7.73091 5.47488 0.417314 -1.03638e-09 -1.05832e-08 -1.83618e-08 2.90554 0.965183 0.102902 -1.03638e-09 -1.05832e-08 -1.83618e-08 10.2786 0.731801 0.0259123 -1.03638e-09 -1.05832e-08 -1.83618e-08 2.22167 -0.733487 -0.20892 -3.99317e-13 9.43838e-13 -1.27247e-12 -30.1384 -7.62051 15.6583 10.0235 -4.15565 -17.8454 1.10191 28.3843 -4.35526 5.38247e-09 -1.48075e-08 -1.00995e-08 9.05053e-09 -2.51152e-08 -1.75567e-08 5.38246e-09 -1.48075e-08 -1.00995e-08 -7.73091 5.47488 -0.417314 5.38247e-09 -1.48075e-08 -1.00995e-08 -2.90554 0.965183 -0.102902 5.38246e-09 -1.48075e-08 -1.00995e-08 -10.2786 0.731801 -0.0259123 5.38247e-09 -1.48075e-08 -1.00995e-08 -2.22167 -0.733487 0.20892 -2.03217e-16 0.0 -3.88251e-19 1.8088 -42.1906 4.65248 -1.79877 39.7687 -7.92549 177.211 6.88172 11.9087 2.03217e-16 0.0 3.88251e-19 -3.03823 -46.8527 -0.882875 0.714018 60.4159 -2.24367 12.6041 -27.0752 23.9499
5.08172 86.4166 74.7684 -162.33 -61.7268 184.937 -1.60835 -11.1675 -2.46254 -4.45609 -7.94304 -1.24713 -9.56574 5.35364 -12.7738 25.2682 9.41625 -29.412 -0.0 0.0 0.0 -0.0 0.0 0.0 -3.51987e-13 8.45002e-13 -1.1576e-12 19.0477 -53.825 -5.59317 -6.88418 -2.44739 12.0736 -2.51047 40.1398 6.81598 -7.1461e-10 -9.51562e-09 -1.57918e-08 -1.68983e-09 -1.44858e-08 -2.72069e-08 -7.14609e-10 -9.51562e-09 -1.57918e-08 7.73091 5.47488 0.417314 -7.14611e-10 -9.51562e-09 -1.57918e-08 2.90554 0.965183 0.102902 -7.14605e-10 -9.51562e-09 -1.57918e-08 10.2786 0.731801 0.0259123 -7.14611e-10 -9.51563e-09 -1.57918e-08 2.22167 -0.733487 -0.20892 -3.52216e-13 8.45018e-13 -1.15796e-12 -29.346 -8.93251 15.9606 9.9574 -4.11565 -17.7213 1.20416 29.6057 -4.57673 4.64646e-09 -1.29305e-08 -8.76848e-09 7.81427e-09 -2.19452e-08 -1.52413e-08 4.64645e-09 -1.29305e-08 -8.76846e-09 -7.73091 5.47488 -0.417314 4.64646e-09 -1.29305e-08 -8.76848e-09 -2.90554 0.965183 -0.102902 4.64645e-09 -1.29305e-08 -8.76848e-09 -10.2786 0.731801 -0.0259123 4.64646e-09 -1.29305e-08 -8.76849e-09 -2.22167 -0.733487 0.20892 -2.03217e-16 0.0 -3.88251e-19 1.2636 -42.6597 4.44568 -1.99935 39.735 -9.22749 177.442 5.60113 12.0608 2.03217e-16 0.0 3.88251e-19 -3.28985 -46.0745 -1.86396 0.673069 60.1034 -2.31151 12.9159 -27.6369 24.2038
4.95386 86.4099 73.8462 -162.78 -60.6489 185.473 -1.27313 -10.7994 -2.26851 -4.28762 -7.98894 -1.17815 -9.62646 5.06381 -12.6523 25.0828 9.56298 -29.1135 -0.0 0.0 0.0 -0.0 0.0 0.0 -2.11821e-13 6.12336e-13 -7.6046e-13 16.707 -56.7618 -7.52782 -6.80584 -2.41005 11.9322 -2.93421 42.7175 7.46172 -1.37084e-10 -6.32698e-09 -9.4428e-09 -5.0274e-10 -9.74584e-09 -1.62794e-08 -1.37085e-10 -6.32696e-09 -9.44281e-09 7.73091 5.47488 0.417314 -1.37085e-10 -6.32698e-09 -9.4428e-09 2.90554 0.965183 0.102902 -1.37078e-10 -6.32697e-09 -9.44279e-09 10.2786 0.731801 0.0259123 -1.37086e-10 -6.32698e-09 -9.44279e-09 2.22167 -0.733487 -0.20892 -2.12036e-13 6.12351e-13 -7.60737e-13 -28.4608 -10.6986 16.3939 9.88144 -4.06983 -17.5789 1.36018 31.2687 -4.89015 2.61717e-09 -7.0884e-09 -4.86814e-09 4.4057e-09 -1.20428e-08 -8.46129e-09 2.61716e-09 -7.0884e-09 -4.86812e-09 -7.73091 5.47488 -0.417314 2.61717e-09 -7.08842e-09 -4.86814e-09 -2.90554 0.965183 -0.102902 2.61716e-09 -7.08841e-09 -4.86814e-09 -10.2786 0.731801 -0.0259123 2.61718e-09 -7.0884e-09 -4.86815e-09 -2.22167 -0.733487 0.20892 -2.03217e-16 0.0 -3.88251e-19 0.284761 -43.3343 4.01835 -2.2134 39.6798 -10.6202 177.789 4.06213 11.9413 2.03217e-16 0.0 3.88251e-19 -3.9506 -45.1181 -3.31897 0.61532 59.6643 -2.39565 13.3488 -28.884 24.2278
4.72989 86.1534 73.0255 -163.313 -59.6334 186.043 -1.09041 -10.4831 -2.15132 -4.12175 -8.02206 -1.12288 -9.68825 4.74405 -12.5474 24.9067 9.71006 -28.8407 -0.0 0.0 0.0 -0.0 0.0 0.0 -5.88315e-14 3.67601e-13 -2.73269e-13 14.0043 -59.2471 -9.82914 -6.74516 -2.38138 11.8227 -3.3239 44.867 8.03922 3.78249e-10 -2.43819e-09 -2.23657e-09 6.01877e-10 -3.89078e-09 -3.87166e-09 3.78247e-10 -2.43816e-09 -2.2366e-09 7.73091 5.47488 0.417314 3.78248e-10 -2.43819e-09 -2.23657e-09 2.90554 0.965183 0.102902 3.78255e-10 -2.43819e-09 -2.23657e-09 10.2786 0.731801 0.0259123 3.78246e-10 -2.43818e-09 -2.23656e-09 2.22167 -0.733487 -0.20892 -5.90304e-14 3.67613e-13 -2.73461e-13 -27.5252 -12.4322 16.8437 9.8087 -4.02605 -17.443 1.52962 32.857 -5.20417 2.43999e-10 -2.12279e-10 -3.7801e-10 4.17106e-10 -3.7979e-10 -6.5537e-10 2.43996e-10 -2.12277e-10 -3.77986e-10 -7.73091 5.47488 -0.417314 2.44001e-10 -2.12281e-10 -3.7801e-10 -2.90554 0.965183 -0.102902 2.43994e-10 -2.1228e-10 -3.7801e-10 -10.2786 0.731801 -0.0259123 2.44004e-10 -2.12271e-10 -3.78017e-10 -2.22167 -0.733487 0.20892 -2.03217e-16 0.0 -3.88251e-19 -0.995268 -44.1001 3.43606 -2.47174 39.6349 -12.3226 178.24 2.39719 11.3068 2.03217e-16 0.0 3.88251e-19 -4.69008 -44.0694 -4.76392 0.54991 59.1333 -2.48373 13.8215 -30.2459 24.2788
4.56254 85.9608 72.1195 -163.542 -58.5487 186.289 -0.902219 -10.2162 -2.07227 -4.06563 -8.06138 -1.08555 -9.70589 4.46989 -12.4738 24.7652 9.83238 -28.6534 -0.0 0.0 0.0 -0.0 0.0 0.0 2.67281e-14 2.32573e-13 1.11369e-13 10.7215 -61.3714 -12.8065 -6.70578 -2.36274 11.7518 -3.69788 46.6523 8.5626 5.13442e-10 7.29816e-10 2.90509e-09 9.93351e-10 9.86996e-10 4.98851e-09 5.1344e-10 7.29844e-10 2.90506e-09 7.73091 5.47488 0.417314 5.13441e-10 7.29817e-10 2.90509e-09 2.90554 0.965183 0.102902 5.13448e-10 7.29817e-10 2.90509e-09 10.2786 0.731801 0.0259123 5.13437e-10 7.2982e-10 2.9051e-09 2.22167 -0.733487 -0.20892 2.65479e-14 2.32582e-13 1.1122e-13 -26.6105 -13.6542 17.1742 9.75248 -3.99227 -17.3381 1.64777 33.8566 -5.41017 -1.52366e-09 4.76691e-09 2.72238e-09 -2.5592e-09 8.07203e-09 4.73775e-09 -1.52366e-09 4.76691e-09 2.7224e-09 -7.73091 5.47488 -0.417314 -1.52366e-09 4.76691e-09 2.72238e-09 -2.90554 0.965183 -0.102902 -1.52366e-09 4.76691e-09 2.72238e-09 -10.2786 0.731801 -0.0259123 -1.52365e-09 4.76692e-09 2.72237e-09 -2.22167 -0.733487 0.20892 -2.03217e-16 0.0 -3.88251e-19 -2.43632 -44.8434 2.76918 -2.79868 39.6163 -14.556 178.75 0.732572 9.91043 2.03217e-16 0.0 3.88251e-19 -5.23451 -43.0349 -5.75553 0.487081 58.5454 -2.56433 14.2706 -31.1423 24.6024
